<svg xmlns="http://www.w3.org/2000/svg" viewBox="0 0 64 64">
  <defs>
    <linearGradient id="castleGrad" x1="0%" y1="0%" x2="0%" y2="100%">
      <stop offset="0%" style="stop-color:#666;stop-opacity:1" />
      <stop offset="100%" style="stop-color:#333;stop-opacity:1" />
    </linearGradient>
  </defs>
  <!-- Main towers -->
  <rect x="4" y="20" width="12" height="36" fill="url(#castleGrad)" stroke="#222" stroke-width="1"/>
  <rect x="48" y="20" width="12" height="36" fill="url(#castleGrad)" stroke="#222" stroke-width="1"/>
  
  <!-- Center building -->
  <rect x="16" y="28" width="32" height="28" fill="url(#castleGrad)" stroke="#222" stroke-width="1"/>
  
  <!-- Tower tops -->
  <rect x="4" y="18" width="3" height="4" fill="#555"/>
  <rect x="7" y="18" width="3" height="4" fill="#555"/>
  <rect x="10" y="18" width="3" height="4" fill="#555"/>
  <rect x="13" y="18" width="3" height="4" fill="#555"/>
  
  <rect x="48" y="18" width="3" height="4" fill="#555"/>
  <rect x="51" y="18" width="3" height="4" fill="#555"/>
  <rect x="54" y="18" width="3" height="4" fill="#555"/>
  <rect x="57" y="18" width="3" height="4" fill="#555"/>
  
  <!-- Center battlements -->
  <rect x="16" y="26" width="4" height="4" fill="#555"/>
  <rect x="22" y="26" width="4" height="4" fill="#555"/>
  <rect x="28" y="26" width="4" height="4" fill="#555"/>
  <rect x="34" y="26" width="4" height="4" fill="#555"/>
  <rect x="40" y="26" width="4" height="4" fill="#555"/>
  <rect x="44" y="26" width="4" height="4" fill="#555"/>
  
  <!-- Windows -->
  <rect x="8" y="26" width="4" height="6" fill="#444"/>
  <rect x="8" y="36" width="4" height="6" fill="#444"/>
  <rect x="52" y="26" width="4" height="6" fill="#444"/>
  <rect x="52" y="36" width="4" height="6" fill="#444"/>
  
  <!-- Center windows -->
  <rect x="24" y="34" width="4" height="6" fill="#444"/>
  <rect x="36" y="34" width="4" height="6" fill="#444"/>
  <rect x="30" y="42" width="4" height="6" fill="#444"/>
  
  <!-- Gate -->
  <path d="M 28 50 Q 28 46 32 46 Q 36 46 36 50 L 36 56 L 28 56 Z" fill="#333" stroke="#222" stroke-width="1"/>
  
  <!-- Gate details -->
  <rect x="31" y="52" width="2" height="4" fill="#222"/>
</svg>
